<svg id="Layer_2" data-name="Layer 2" xmlns="http://www.w3.org/2000/svg" viewBox="0 0 512.07 448"><defs><style>.cls-1{fill:#fff;}.cls-2{fill:#e3173e;}.cls-3{fill:#f7901e;}.cls-4{fill:#00a9d8;}.cls-5{fill:#00a98f;}.cls-6{fill:#15397f;}</style></defs><path class="cls-1" d="M256,32C114.6,32,0,125.1,0,240c0,47.6,19.9,91.2,52.9,126.3C38,405.7,7,439.1,6.5,439.5A24,24,0,0,0,24,480c61.5,0,110-25.7,139.1-46.3A308.85,308.85,0,0,0,256,448c141.4,0,256-93.1,256-208S397.4,32,256,32Z" transform="translate(0.07 -32)"/><path class="cls-2" d="M384,210.74H89.45a13.13,13.13,0,1,1,0-26.25H384a13.13,13.13,0,0,1,0,26.25Z" transform="translate(0.07 -32)"/><path class="cls-3" d="M292.8,259.44H89.45a13.13,13.13,0,1,1,0-26.25H292.8a13.13,13.13,0,0,1,0,26.25Z" transform="translate(0.07 -32)"/><path class="cls-4" d="M458.75,308.13H89.45a13.12,13.12,0,1,1,0-26.24h369.3a13.12,13.12,0,1,1,0,26.24Z" transform="translate(0.07 -32)"/><path class="cls-5" d="M257.74,356.83H89.45a13.13,13.13,0,1,1,0-26.25H257.74a13.13,13.13,0,0,1,0,26.25Z" transform="translate(0.07 -32)"/><path class="cls-6" d="M173.59,161.36H89.45a13.12,13.12,0,1,1,0-26.24h84.14a13.12,13.12,0,1,1,0,26.24Z" transform="translate(0.07 -32)"/></svg>